<?xml version="1.0" encoding="UTF-8"?>
<svg version="1.1" xmlns="http://www.w3.org/2000/svg" width="111" height="128">
<path d="M0 0 C13.11685757 -0.11570688 26.23359431 -0.2046206 39.35085773 -0.25906086 C45.44136354 -0.28518584 51.53152093 -0.32063759 57.62182617 -0.37719727 C63.4962476 -0.4314124 69.37033334 -0.46139866 75.24498558 -0.47438622 C77.48938472 -0.4836449 79.7337649 -0.50172444 81.97802162 -0.52865028 C85.1150689 -0.56480018 88.25071836 -0.56995113 91.38793945 -0.56762695 C92.32157822 -0.58560333 93.25521698 -0.60357971 94.21714783 -0.62210083 C96.58358022 -0.60305383 98.69835622 -0.54957245 101 0 C102.97575378 2.34797668 102.97575378 2.34797668 104 5 C104.99 6.485 104.99 6.485 106 8 C106.25726891 9.88288593 106.25726891 9.88288593 106.26742554 12.04084778 C106.27595551 12.86088791 106.28448547 13.68092804 106.29327393 14.52581787 C106.29236755 15.42197815 106.29146118 16.31813843 106.29052734 17.24145508 C106.29724457 18.18810532 106.30396179 19.13475555 106.31088257 20.11009216 C106.32991512 23.24662494 106.3337896 26.38294428 106.3359375 29.51953125 C106.34236241 31.6980549 106.34909054 33.87657767 106.35610962 36.05509949 C106.368096 40.62570191 106.37178911 45.19622867 106.37060547 49.7668457 C106.37040235 55.62136686 106.3976912 61.47540218 106.43214989 67.32980824 C106.45439828 71.83113326 106.45844361 76.33234106 106.45738602 80.83371544 C106.45974559 82.99186564 106.46858909 85.1500189 106.48405075 87.30811501 C106.50366597 90.32920849 106.49788958 93.34925059 106.48583984 96.37036133 C106.49707886 97.26044891 106.50831787 98.1505365 106.51989746 99.06759644 C106.46417283 104.57098917 105.56445019 107.57429313 102 112 C101.67 112.66 101.34 113.32 101 114 C87.88314243 114.11570688 74.76640569 114.2046206 61.64914227 114.25906086 C55.55863646 114.28518584 49.46847907 114.32063759 43.37817383 114.37719727 C37.5037524 114.4314124 31.62966666 114.46139866 25.75501442 114.47438622 C23.51061528 114.4836449 21.2662351 114.50172444 19.02197838 114.52865028 C15.8849311 114.56480018 12.74928164 114.56995113 9.61206055 114.56762695 C8.67842178 114.58560333 7.74478302 114.60357971 6.78285217 114.62210083 C4.41641978 114.60305383 2.30164378 114.54957245 0 114 C-1.97575378 111.65202332 -1.97575378 111.65202332 -3 109 C-3.66 108.01 -4.32 107.02 -5 106 C-5.25726891 104.11711407 -5.25726891 104.11711407 -5.26742554 101.95915222 C-5.27595551 101.13911209 -5.28448547 100.31907196 -5.29327393 99.47418213 C-5.29236755 98.57802185 -5.29146118 97.68186157 -5.29052734 96.75854492 C-5.29724457 95.81189468 -5.30396179 94.86524445 -5.31088257 93.88990784 C-5.32991512 90.75337506 -5.3337896 87.61705572 -5.3359375 84.48046875 C-5.34236241 82.3019451 -5.34909054 80.12342233 -5.35610962 77.94490051 C-5.368096 73.37429809 -5.37178911 68.80377133 -5.37060547 64.2331543 C-5.37040235 58.37863314 -5.3976912 52.52459782 -5.43214989 46.67019176 C-5.45439828 42.16886674 -5.45844361 37.66765894 -5.45738602 33.16628456 C-5.45974559 31.00813436 -5.46858909 28.8499811 -5.48405075 26.69188499 C-5.50366597 23.67079151 -5.49788958 20.65074941 -5.48583984 17.62963867 C-5.49707886 16.73955109 -5.50831787 15.8494635 -5.51989746 14.93240356 C-5.46417283 9.42901083 -4.56445019 6.42570687 -1 2 C-0.67 1.34 -0.34 0.68 0 0 Z M30 26 C34 27 34 27 34 27 Z M29 27 C30 29 30 29 30 29 Z M71 27 C72 29 72 29 72 29 Z M30 29 C31.27946352 33.25144878 32.90304495 36.76486617 35.22265625 40.54296875 C44.78376796 56.8861453 48.22900302 69.67427269 47 89 C47.66 88.01 48.32 87.02 49 86 C49.99 86 50.98 86 52 86 C52.66 86.66 53.32 87.32 54 88 C53.94650391 87.37472412 53.89300781 86.74944824 53.83789062 86.10522461 C52.62919277 68.11934557 56.71378215 56.27182293 65.44726562 40.97045898 C65.81395355 40.32720673 66.18064148 39.68395447 66.55844116 39.02120972 C67.57435064 37.26142538 68.61673767 35.51700359 69.66064453 33.77368164 C71.39151656 31.01240103 71.39151656 31.01240103 70 28 C68.35 27.67 66.7 27.34 65 27 C56.72397253 41.95222029 56.72397253 41.95222029 51 58 C50.6596875 57.1028125 50.319375 56.205625 49.96875 55.28125 C46.20868852 45.5438238 41.79749177 36.26622142 37 27 C34.64712386 27 32.20626776 28.24893012 30 29 Z " fill="#000000" transform="translate(5,7)"/>
<path d="M0 0 C30.03 0 60.06 0 91 0 C91 0.33 91 0.66 91 1 C60.97 1 30.94 1 0 1 C0 0.67 0 0.34 0 0 Z " fill="#000000" transform="translate(10,122)"/>
<path d="M0 0 C30.03 0 60.06 0 91 0 C91 0.33 91 0.66 91 1 C60.97 1 30.94 1 0 1 C0 0.67 0 0.34 0 0 Z " fill="#000000" transform="translate(10,5)"/>
<path d="M0 0 C3 1 3 1 3 1 Z " fill="#000000" transform="translate(101,121)"/>
<path d="M0 0 C3 1 3 1 3 1 Z " fill="#000000" transform="translate(7,121)"/>
<path d="" fill="#000000" transform="translate(0,0)"/>
<path d="" fill="#000000" transform="translate(0,0)"/>
<path d="M0 0 C3 1 3 1 3 1 Z " fill="#000000" transform="translate(101,6)"/>
<path d="M0 0 C3 1 3 1 3 1 Z " fill="#000000" transform="translate(7,6)"/>
<path d="" fill="#000000" transform="translate(0,0)"/>
<path d="" fill="#000000" transform="translate(0,0)"/>
<path d="" fill="#000000" transform="translate(0,0)"/>
<path d="" fill="#000000" transform="translate(0,0)"/>
<path d="" fill="#000000" transform="translate(0,0)"/>
<path d="" fill="#000000" transform="translate(0,0)"/>
<path d="" fill="#000000" transform="translate(0,0)"/>
<path d="" fill="#000000" transform="translate(0,0)"/>
<path d="" fill="#000000" transform="translate(0,0)"/>
<path d="" fill="#000000" transform="translate(0,0)"/>
<path d="" fill="#000000" transform="translate(0,0)"/>
<path d="" fill="#000000" transform="translate(0,0)"/>
<path d="" fill="#000000" transform="translate(0,0)"/>
<path d="" fill="#000000" transform="translate(0,0)"/>
<path d="" fill="#000000" transform="translate(0,0)"/>
<path d="" fill="#000000" transform="translate(0,0)"/>
<path d="" fill="#000000" transform="translate(0,0)"/>
<path d="" fill="#000000" transform="translate(0,0)"/>
<path d="" fill="#000000" transform="translate(0,0)"/>
<path d="" fill="#000000" transform="translate(0,0)"/>
<path d="" fill="#000000" transform="translate(0,0)"/>
<path d="" fill="#000000" transform="translate(0,0)"/>
<path d="" fill="#000000" transform="translate(0,0)"/>
<path d="" fill="#000000" transform="translate(0,0)"/>
<path d="" fill="#000000" transform="translate(0,0)"/>
<path d="" fill="#000000" transform="translate(0,0)"/>
<path d="" fill="#000000" transform="translate(0,0)"/>
<path d="" fill="#000000" transform="translate(0,0)"/>
<path d="" fill="#000000" transform="translate(0,0)"/>
<path d="" fill="#000000" transform="translate(0,0)"/>
<path d="" fill="#000000" transform="translate(0,0)"/>
<path d="" fill="#000000" transform="translate(0,0)"/>
<path d="" fill="#000000" transform="translate(0,0)"/>
<path d="" fill="#000000" transform="translate(0,0)"/>
<path d="" fill="#000000" transform="translate(0,0)"/>
<path d="" fill="#000000" transform="translate(0,0)"/>
<path d="" fill="#000000" transform="translate(0,0)"/>
<path d="" fill="#000000" transform="translate(0,0)"/>
<path d="" fill="#000000" transform="translate(0,0)"/>
<path d="" fill="#000000" transform="translate(0,0)"/>
<path d="" fill="#000000" transform="translate(0,0)"/>
<path d="" fill="#000000" transform="translate(0,0)"/>
<path d="" fill="#000000" transform="translate(0,0)"/>
<path d="" fill="#000000" transform="translate(0,0)"/>
<path d="" fill="#000000" transform="translate(0,0)"/>
<path d="" fill="#000000" transform="translate(0,0)"/>
<path d="" fill="#000000" transform="translate(0,0)"/>
<path d="" fill="#000000" transform="translate(0,0)"/>
<path d="" fill="#000000" transform="translate(0,0)"/>
<path d="" fill="#000000" transform="translate(0,0)"/>
<path d="" fill="#000000" transform="translate(0,0)"/>
<path d="" fill="#000000" transform="translate(0,0)"/>
<path d="" fill="#000000" transform="translate(0,0)"/>
<path d="" fill="#000000" transform="translate(0,0)"/>
<path d="" fill="#000000" transform="translate(0,0)"/>
<path d="" fill="#000000" transform="translate(0,0)"/>
<path d="" fill="#000000" transform="translate(0,0)"/>
<path d="" fill="#000000" transform="translate(0,0)"/>
<path d="" fill="#000000" transform="translate(0,0)"/>
<path d="" fill="#000000" transform="translate(0,0)"/>
<path d="" fill="#000000" transform="translate(0,0)"/>
<path d="" fill="#000000" transform="translate(0,0)"/>
<path d="" fill="#000000" transform="translate(0,0)"/>
<path d="" fill="#000000" transform="translate(0,0)"/>
<path d="" fill="#000000" transform="translate(0,0)"/>
<path d="" fill="#000000" transform="translate(0,0)"/>
<path d="" fill="#000000" transform="translate(0,0)"/>
<path d="" fill="#000000" transform="translate(0,0)"/>
<path d="" fill="#000000" transform="translate(0,0)"/>
<path d="" fill="#000000" transform="translate(0,0)"/>
<path d="" fill="#000000" transform="translate(0,0)"/>
<path d="" fill="#000000" transform="translate(0,0)"/>
<path d="" fill="#000000" transform="translate(0,0)"/>
<path d="" fill="#000000" transform="translate(0,0)"/>
</svg>
