<?xml version="1.0" encoding="UTF-8"?>
<svg version="1.1" xmlns="http://www.w3.org/2000/svg" width="600" height="600">
<path d="M0 0 C198 0 396 0 600 0 C600 198 600 396 600 600 C402 600 204 600 0 600 C0 402 0 204 0 0 Z " fill="#222222" transform="translate(0,0)"/>
<path d="M0 0 C0.67355026 -0.00350464 1.34710052 -0.00700928 2.0410614 -0.01062012 C4.2686086 -0.01942478 6.49583821 -0.01359092 8.72338867 -0.00683594 C10.27414511 -0.00818343 11.82490114 -0.01012466 13.37565613 -0.01263428 C16.62808244 -0.01558421 19.88039895 -0.01129389 23.1328125 -0.00195312 C27.29226639 0.00941289 31.45146136 0.00289934 35.61090565 -0.00909805 C38.81517975 -0.01634456 42.01939307 -0.01401544 45.22366905 -0.00884247 C46.7565991 -0.0075122 48.28953475 -0.00913179 49.82245827 -0.01380157 C51.97162986 -0.01890961 54.12039009 -0.01109588 56.26953125 0 C57.49070145 0.00159119 58.71187164 0.00318237 59.970047 0.00482178 C67.63263751 0.58420765 72.21440077 3.80362772 77.32885742 9.25878906 C79.49583197 12.19149092 81.29604389 15.26866585 83.07885742 18.44628906 C84.1110123 20.22516543 85.14357634 22.00380443 86.17651367 23.78222656 C86.69616699 24.68811523 87.21582031 25.59400391 87.7512207 26.52734375 C90.2824161 30.90973528 92.90201981 35.23817254 95.51635742 39.57128906 C96.42696896 41.08794288 97.33712418 42.60487077 98.24682617 44.12207031 C99.95021755 46.9618235 101.65469554 49.8009129 103.3605957 52.63916016 C109.28464298 62.49832592 115.16133726 72.38508404 121.02661133 82.27929688 C125.39431484 89.64612115 129.76840803 97.00902811 134.16870117 104.35644531 C134.52722168 104.95614136 134.88574219 105.5558374 135.25512695 106.17370605 C138.51083614 111.60179463 141.89222527 116.94361201 145.32885742 122.25878906 C149.19565245 120.78053955 150.47654556 118.85199241 152.47338867 115.29003906 C153.06031494 114.2567749 153.64724121 113.22351074 154.25195312 112.15893555 C154.87545654 111.03688721 155.49895996 109.91483887 156.14135742 108.75878906 C156.80191488 107.58895233 157.46363649 106.41977225 158.12646484 105.2512207 C159.50708831 102.81504203 160.882614 100.37608963 162.25463867 97.93505859 C165.50457616 92.16257415 168.82572603 86.43122899 172.14135742 80.69628906 C172.77138672 79.60396973 173.40141602 78.51165039 174.05053711 77.38623047 C177.85445481 70.79390703 181.68312382 64.21721588 185.55493164 57.66455078 C187.94066254 53.62557602 190.30929453 49.57720293 192.66479492 45.52050781 C198.19498485 35.99751016 203.73636965 26.48342508 209.45385742 17.07128906 C209.89076904 16.34756104 210.32768066 15.62383301 210.77783203 14.87817383 C214.89950334 8.14059359 218.42016911 2.7573367 226.32885742 0.25878906 C231.56301032 -0.31811952 236.77116926 -0.28101364 242.02807617 -0.23730469 C243.55166187 -0.23745989 245.07524797 -0.23895231 246.59883118 -0.24171448 C249.77863193 -0.24309321 252.95797871 -0.23062513 256.13769531 -0.20776367 C260.20644435 -0.17930732 264.27444419 -0.18214285 268.34324932 -0.19485378 C271.48403797 -0.20181666 274.62465428 -0.19401602 277.76542091 -0.18159676 C279.2656774 -0.17709327 280.76595245 -0.1767358 282.26621056 -0.18066216 C284.36259154 -0.18358238 286.45794798 -0.16703341 288.55419922 -0.14526367 C289.74474411 -0.13986069 290.935289 -0.1344577 292.16191101 -0.12889099 C295.60661862 0.29279105 297.5236404 1.26658223 300.32885742 3.25878906 C298.896521 15.61728156 288.79408045 27.23161604 282.11279297 37.3659668 C277.92264959 43.74295011 273.9000048 50.19106178 270.01635742 56.75878906 C266.17942749 63.24511847 262.20197254 69.58226197 257.97607422 75.8215332 C253.67556739 82.18131621 249.63292034 88.69397978 245.59204102 95.22070312 C243.45034529 98.67622611 241.29560505 102.12358285 239.14135742 105.57128906 C238.76172852 106.18029053 238.38209961 106.78929199 237.9909668 107.41674805 C234.4723437 113.05331159 230.90069243 118.65584431 227.32885742 124.25878906 C226.22070819 125.99832378 225.11263381 127.73790619 224.00463867 129.47753906 C223.45710937 130.33718262 222.90958008 131.19682617 222.34545898 132.08251953 C215.78113618 142.39170385 209.23130528 152.70980766 202.71948242 163.05224609 C201.36284141 165.20486573 200.00226055 167.35495606 198.64135742 169.50488281 C197.78699174 170.86022613 196.93281552 172.21568891 196.07885742 173.57128906 C195.71501953 174.14411621 195.35118164 174.71694336 194.97631836 175.30712891 C194.22636533 176.50126442 193.49822369 177.70931224 192.78982544 178.92855835 C191.32885742 181.25878906 191.32885742 181.25878906 189.36282349 183.70758057 C181.01331959 195.41462071 182.22948651 208.44919545 182.38163996 222.29470706 C182.41130076 225.82283721 182.39349534 229.35073606 182.38058472 232.87892151 C182.36286395 239.54631121 182.38372284 246.21294424 182.42040622 252.88023478 C182.47284148 262.66723692 182.47419536 272.45428167 182.46636772 282.24140263 C182.46579845 282.96163355 182.46522917 283.68186447 182.46464264 284.42392057 C182.46345978 285.8603925 182.46214834 287.29686434 182.46070468 288.73333603 C182.45791213 292.9196665 182.46903936 297.10566235 182.49246526 301.29192626 C182.50880122 304.50669027 182.51340341 307.72148399 182.52075195 310.9362793 C182.53116013 312.08601227 182.5415683 313.23574524 182.55229187 314.4203186 C182.55714754 327.43727399 182.55714754 327.43727399 178.48925781 332.58813477 C170.40976398 338.83606971 158.60918855 337.69173074 148.92285156 337.5949707 C146.39965744 337.57136671 143.87752495 337.57443063 141.35424805 337.58105469 C117.38003593 337.54067967 117.38003593 337.54067967 111.32885742 333.25878906 C106.62283326 326.95786007 106.76702246 321.33909594 106.83056641 313.6574707 C106.82504761 312.40133469 106.81952881 311.14519867 106.81384277 309.85099792 C106.8019342 307.12978233 106.80234854 304.40895288 106.81243706 301.68773079 C106.8280623 297.37919994 106.81427528 293.07106182 106.79640198 288.76255798 C106.76563965 280.39236232 106.76407833 272.02228795 106.76605225 263.6520462 C106.76744674 253.0016731 106.75700223 242.35139353 106.71747452 231.70108885 C106.7025934 227.42390353 106.70277148 223.14706924 106.71495235 218.86987889 C106.71854031 216.84696331 106.71533404 214.82419243 106.70916748 212.80128479 C106.70180662 210.34298467 106.70500737 207.88461926 106.72114563 205.42636108 C106.67201636 197.46738256 105.57561859 191.16695257 101.05151367 184.42675781 C100.62684814 183.78367676 100.20218262 183.1405957 99.76464844 182.47802734 C99.08486938 181.47231689 99.08486938 181.47231689 98.39135742 180.44628906 C97.40071408 178.9482916 96.41117043 177.44956644 95.42260742 175.95019531 C94.6569043 174.79414795 94.6569043 174.79414795 93.87573242 173.61474609 C91.32956751 169.73682763 88.86073279 165.81088593 86.39135742 161.88378906 C85.89321533 161.09319092 85.39507324 160.30259277 84.88183594 159.48803711 C83.8692148 157.88090621 82.85692683 156.27356534 81.8449707 154.66601562 C79.34359021 150.69441954 76.83590182 146.72681124 74.32885742 142.75878906 C73.33144326 141.17937356 72.33404744 139.59994646 71.33666992 138.02050781 C69.31165692 134.81412729 67.28549557 131.60847625 65.25854492 128.40332031 C60.5982219 121.03240124 55.94503171 113.6574546 51.32885742 106.25878906 C42.81126668 92.60985264 34.18797071 79.02814144 25.54516602 65.45825195 C20.77284228 57.9629274 16.02178304 50.45440078 11.28198242 42.93847656 C8.70268536 38.84854702 6.11481977 34.76409484 3.52563477 30.68041992 C2.00438264 28.27614213 0.49001845 25.86765816 -1.02270508 23.45800781 C-2.57638036 20.98345281 -4.1499549 18.53160405 -5.75708008 16.09082031 C-8.85492268 11.28407393 -10.75422861 8.03524788 -9.67114258 2.25878906 C-6.03475858 -0.16546693 -4.33034645 0.0056535 0 0 Z " fill="#D8DBE5" transform="translate(154.671142578125,126.7412109375)"/>
<path d="M0 0 C0.77214844 0.02578125 1.54429687 0.0515625 2.33984375 0.078125 C4.78533173 0.27270271 7.12373103 0.6367693 9.5 1.25 C6.22447281 3.13972722 3.2157043 3.68500935 -0.5 4.25 C-0.53738281 5.26578125 -0.57476562 6.2815625 -0.61328125 7.328125 C-0.9060031 13.82670882 -1.22357789 19.9699075 -3.0625 26.25 C-7.00515681 40.56398063 -3.90930882 54.62255011 0.9375 68.3046875 C1.71309849 70.98696561 1.71290595 73.48222268 1.5 76.25 C2.16 76.25 2.82 76.25 3.5 76.25 C5.2301704 80.7470699 5.77093735 84.50214352 5.75 89.3125 C5.75773437 91.09333984 5.75773437 91.09333984 5.765625 92.91015625 C5.50995097 96.12488113 4.87732596 98.3587086 3.5 101.25 C2.84 101.25 2.18 101.25 1.5 101.25 C1.39042969 101.99121094 1.28085937 102.73242188 1.16796875 103.49609375 C0.46634185 106.38876604 -0.44070699 107.93301031 -2.1875 110.3125 C-6.91205404 117.10902713 -10.51678115 124.5386607 -13.5 132.25 C-14.16 132.25 -14.82 132.25 -15.5 132.25 C-15.6546875 133.2709375 -15.6546875 133.2709375 -15.8125 134.3125 C-16.65693671 137.92054778 -17.89239001 140.90617122 -19.5 144.25 C-20.16 144.58 -20.82 144.91 -21.5 145.25 C-22.48592043 146.89385301 -22.48592043 146.89385301 -23.375 148.875 C-24.68540156 151.6029735 -26.03895885 154.25987956 -27.5625 156.875 C-29.3291296 159.95235479 -30.9447712 163.06178096 -32.5 166.25 C-33.16 166.25 -33.82 166.25 -34.5 166.25 C-34.5 166.91 -34.5 167.57 -34.5 168.25 C-35.16 168.25 -35.82 168.25 -36.5 168.25 C-36.5928125 169.425625 -36.5928125 169.425625 -36.6875 170.625 C-37.8032335 175.60288793 -40.10306227 179.77453694 -42.5 184.25 C-43.16 184.25 -43.82 184.25 -44.5 184.25 C-44.5 184.91 -44.5 185.57 -44.5 186.25 C-45.16 186.25 -45.82 186.25 -46.5 186.25 C-47.57525194 188.90228812 -48.59456151 191.53368454 -49.5 194.25 C-50.49 194.58 -51.48 194.91 -52.5 195.25 C-51.98841133 191.32782017 -51.33528681 187.53970583 -50.4375 183.6875 C-48.17870908 172.42776948 -48.2520769 159.90030658 -54.5859375 149.984375 C-57.02295643 145.81232898 -57.03135316 142.18005228 -56.875 137.4375 C-56.85022583 136.16108643 -56.85022583 136.16108643 -56.82495117 134.85888672 C-56.75021413 131.98703225 -56.63038458 129.11985273 -56.5 126.25 C-56.45601074 125.17991699 -56.41202148 124.10983398 -56.36669922 123.00732422 C-54.94962843 91.69962843 -54.94962843 91.69962843 -47.5 84.25 C-47.12875 82.7959375 -47.12875 82.7959375 -46.75 81.3125 C-45.59041222 76.94382044 -43.42646072 73.28504954 -41.23046875 69.359375 C-39.31074126 65.90993238 -37.44169747 62.44209402 -35.625 58.9375 C-35.02945312 57.80699219 -34.43390625 56.67648438 -33.8203125 55.51171875 C-32.44241976 52.10775295 -32.27236954 49.8765671 -32.5 46.25 C-31.3114914 38.32660931 -27.83059839 31.91076273 -23.875 25.0625 C-23.33738037 24.12937988 -22.79976074 23.19625977 -22.24584961 22.23486328 C-9.10070731 -0.32044744 -9.10070731 -0.32044744 0 0 Z " fill="#F0F2F5" transform="translate(382.5,127.75)"/>
<path d="M0 0 C-1.31080794 3.5300308 -2.86537506 6.57717134 -4.90625 9.73828125 C-5.48036621 10.63289063 -6.05448242 11.5275 -6.64599609 12.44921875 C-7.25781738 13.39410156 -7.86963867 14.33898437 -8.5 15.3125 C-9.77386003 17.29790605 -11.04729494 19.28358492 -12.3203125 21.26953125 C-12.94711914 22.24486816 -13.57392578 23.22020508 -14.21972656 24.22509766 C-16.62347235 27.97180289 -19.0075196 31.73029423 -21.375 35.5 C-21.90770508 36.33978394 -21.90770508 36.33978394 -22.45117188 37.1965332 C-23.179617 38.35803166 -23.88622613 39.53345373 -24.57269287 40.72024536 C-26 43 -26 43 -27.95916748 45.43849182 C-36.31244859 57.15177358 -35.09945491 70.18276309 -34.94721746 84.035918 C-34.91755666 87.56404814 -34.93536208 91.09194699 -34.94827271 94.62013245 C-34.96599347 101.28752215 -34.94513458 107.95415518 -34.9084512 114.62144572 C-34.85601594 124.40844786 -34.85466206 134.19549261 -34.8624897 143.98261356 C-34.86305898 144.70284449 -34.86362825 145.42307541 -34.86421478 146.16513151 C-34.86539764 147.60160344 -34.86670908 149.03807527 -34.86815274 150.47454697 C-34.87094529 154.66087744 -34.85981806 158.84687328 -34.83639216 163.0331372 C-34.8200562 166.24790121 -34.81545401 169.46269492 -34.80810547 172.67749023 C-34.7976973 173.82722321 -34.78728912 174.97695618 -34.77656555 176.16152954 C-34.77170988 189.17848493 -34.77170988 189.17848493 -38.83959961 194.3293457 C-46.91909344 200.57728065 -58.71966888 199.43294167 -68.40600586 199.33618164 C-70.92919998 199.31257765 -73.45133248 199.31564156 -75.97460938 199.32226562 C-99.76433223 199.28454083 -99.76433223 199.28454083 -106 194 C-103.85424137 193.97252941 -101.70837559 193.95339537 -99.5625 193.9375 C-98.36753906 193.92589844 -97.17257812 193.91429687 -95.94140625 193.90234375 C-91.57360903 194.01056469 -87.33262108 194.4749825 -83 195 C-81.32194709 195.18148659 -79.64355015 195.35981717 -77.96484375 195.53515625 C-76.72250977 195.66567383 -76.72250977 195.66567383 -75.45507812 195.79882812 C-74.20887695 195.9293457 -74.20887695 195.9293457 -72.9375 196.0625 C-72.07189453 196.15337891 -71.20628906 196.24425781 -70.31445312 196.33789062 C-68.2096608 196.55883568 -66.10483405 196.77945279 -64 197 C-64 196.34 -64 195.68 -64 195 C-58.72 195 -53.44 195 -48 195 C-48 194.34 -48 193.68 -48 193 C-45.36 193 -42.72 193 -40 193 C-40.33 189.37 -40.66 185.74 -41 182 C-41.33 182 -41.66 182 -42 182 C-41.95750626 180.59509308 -41.95750626 180.59509308 -41.91415405 179.1618042 C-41.32492667 159.38436515 -40.9202093 139.61410514 -40.7890625 119.828125 C-40.77478326 117.87406306 -40.76035837 115.92000218 -40.74578857 113.96594238 C-40.68771842 106.01362213 -40.63124493 98.06135825 -40.59863281 90.10888672 C-40.57777003 85.14252002 -40.54263488 80.17643441 -40.49787521 75.21022797 C-40.4837591 73.3427125 -40.47500274 71.4751482 -40.47182083 69.60758209 C-40.46694471 67.03527934 -40.44390667 64.46374851 -40.41650391 61.89160156 C-40.42101311 60.75136284 -40.42101311 60.75136284 -40.4256134 59.58808899 C-40.34361362 54.43862916 -40.34361362 54.43862916 -38.53646851 52.1317749 C-38.0294339 51.75828918 -37.52239929 51.38480347 -37 51 C-36.505 50.01 -36.505 50.01 -36 49 C-35.34 49 -34.68 49 -34 49 C-34 48.34 -34 47.68 -34 47 C-33.34 47 -32.68 47 -32 47 C-31.9175 46.319375 -31.835 45.63875 -31.75 44.9375 C-31.07984855 42.31274015 -30.35885874 40.72195817 -29 38.4375 C-27.44160643 35.75901106 -26.47799966 33.98749787 -26 31 C-25.34 31 -24.68 31 -24 31 C-24 30.34 -24 29.68 -24 29 C-23.34 29 -22.68 29 -22 29 C-21.85304688 28.45472656 -21.70609375 27.90945313 -21.5546875 27.34765625 C-19.93667573 21.90778909 -17.70321549 17.65411019 -14.40234375 13.04296875 C-13.06176114 11.08997514 -12.00563137 9.14117684 -11 7 C-10.34 7 -9.68 7 -9 7 C-8.67 5.35 -8.34 3.7 -8 2 C-2.25 0 -2.25 0 0 0 Z " fill="#C8CAC5" transform="translate(372,265)"/>
<path d="M0 0 C2 3 2 3 2.9375 5.9375 C3.95331669 8.86544224 5.05628556 10.63373894 7 13 C8.35402807 15.70805615 8.09511902 17.78487562 8.0625 20.81640625 C8.05420166 22.03730957 8.04590332 23.25821289 8.03735352 24.51611328 C8.0280632 25.50130951 8.0280632 25.50130951 8.01858521 26.50640869 C7.91260049 38.23155461 8.09790287 49.90666623 8.5625 61.625 C9.07757785 75.19994112 8.94318936 88.73313999 8.625 102.3125 C8.60357941 103.24773499 8.58215881 104.18296997 8.56008911 105.14654541 C8.41108973 111.43247838 8.21917596 117.71614839 8 124 C7.96902222 124.94228455 7.93804443 125.88456909 7.90612793 126.85540771 C7.81050362 129.6476495 7.7005812 132.43894984 7.5859375 135.23046875 C7.55746735 136.08401443 7.52899719 136.93756012 7.49966431 137.81697083 C7.2300459 143.7699541 7.2300459 143.7699541 5 146 C4.34 145.67 3.68 145.34 3 145 C2.99761165 144.33738914 2.99522329 143.67477829 2.99276257 142.99208832 C2.93355824 126.84955196 2.85797354 110.70718316 2.76428509 94.56481171 C2.71937019 86.75839083 2.67994567 78.95201514 2.65356445 71.14550781 C2.63054941 64.33925012 2.59711242 57.53313593 2.55129844 50.72699213 C2.52741328 47.12507677 2.50865378 43.52330311 2.50238609 39.92131042 C2.49518371 35.89460097 2.46470817 31.868383 2.43237305 27.84179688 C2.43380814 26.65496307 2.43524323 25.46812927 2.4367218 24.24533081 C2.36289058 17.73946549 1.64788456 12.94491909 -1 7 C-1.72096729 4.97203827 -1.72096729 4.97203827 -2 3 C-1.34 2.01 -0.68 1.02 0 0 Z " fill="#C6DEE6" transform="translate(259,308)"/>
<path d="M0 0 C6.19394565 4.30474523 9.18437811 9.86928095 12.8125 16.375 C14.05140161 18.5485658 15.29098378 20.72174383 16.53125 22.89453125 C17.12679687 23.94592285 17.72234375 24.99731445 18.3359375 26.08056641 C20.44138683 29.77436968 22.61096632 33.42543477 24.8125 37.0625 C32.83488115 50.34606141 40.78458417 63.67167114 48.69775391 77.02050781 C59.97102945 97.62798273 59.97102945 97.62798273 73 117 C73.99 117 74.98 117 76 117 C75.67 117.598125 75.34 118.19625 75 118.8125 C73.79212012 121.05386471 73.79212012 121.05386471 74 124 C72.0625 123.6875 72.0625 123.6875 70 123 C69.67 122.01 69.34 121.02 69 120 C68.34 120 67.68 120 67 120 C65.70703125 118.0703125 65.70703125 118.0703125 64 115 C63.17277561 113.57944419 62.34312267 112.16030121 61.51171875 110.7421875 C60.56958835 109.12021208 59.62821313 107.49779783 58.6875 105.875 C58.19548096 105.02695801 57.70346191 104.17891602 57.1965332 103.30517578 C54.62675402 98.86187347 52.10593204 94.40312808 49.6875 89.875 C47.5153137 85.83110275 45.11617514 82.03112139 42.4921875 78.265625 C38.51411002 72.22561207 35.24680706 65.75076824 31.91210938 59.34179688 C30.15438971 56.00654931 28.2956709 52.98307518 26 50 C25.27907088 48.6633307 24.59012873 47.308813 23.9375 45.9375 C22.74393337 43.4401176 21.5493666 41.3240499 20 39 C20.33 38.01 20.66 37.02 21 36 C20.38125 35.814375 19.7625 35.62875 19.125 35.4375 C15.98077164 33.31052199 15.97069828 30.55922702 15 27 C14.01 26.67 13.02 26.34 12 26 C8.92833045 21.53284611 6.76151784 16.51295412 4.40234375 11.64453125 C3.13192209 8.93629719 3.13192209 8.93629719 1 7 C1 6.01 1 5.02 1 4 C0.01 3.67 -0.98 3.34 -2 3 C-2 2.34 -2 1.68 -2 1 C-1.34 0.67 -0.68 0.34 0 0 Z " fill="#D4D4D6" transform="translate(227,132)"/>
<path d="M0 0 C2.97 0.495 2.97 0.495 6 1 C5.01 1.495 5.01 1.495 4 2 C4.433125 2.391875 4.86625 2.78375 5.3125 3.1875 C7.28889572 5.31029541 8.56596782 7.47610336 10 10 C10.33257812 10.56203125 10.66515625 11.1240625 11.0078125 11.703125 C12.98246111 15.06734115 14.56562567 18.36625169 16 22 C17.33016404 24.42899521 18.49644258 26.51742414 20.5 28.4375 C22.61660613 30.64229805 23.64051236 33.28102472 25 36 C25.66 36.33 26.32 36.66 27 37 C27.12375 37.721875 27.2475 38.44375 27.375 39.1875 C28.17104467 42.76970102 29.91576757 44.99625327 32 48 C33.01622658 49.99180409 34.01712992 51.99152635 35 54 C35.99959613 55.66690892 36.99963588 57.33355186 38 59 C38.90326653 60.6626499 39.79878724 62.32952559 40.6875 64 C45.27498245 72.448235 50.41457533 80.55056708 55.625 88.625 C59.02484881 93.94449134 62.03804537 99.42777401 65 105 C66.0796792 107.022788 67.16293775 109.04367011 68.25 111.0625 C68.72953125 111.96097656 69.2090625 112.85945313 69.703125 113.78515625 C70.93571959 116.1043221 70.93571959 116.1043221 73 118 C73 118.99 73 119.98 73 121 C73.66 121 74.32 121 75 121 C75.99 122.485 75.99 122.485 77 124 C78.485 124.495 78.485 124.495 80 125 C79.67 123.68 79.34 122.36 79 121 C79.66 121 80.32 121 81 121 C84.07692308 126.41538462 84.07692308 126.41538462 83.6875 129.375 C83.460625 129.91125 83.23375 130.4475 83 131 C78.66134036 130.74478473 76.40932648 129.00328158 73.4765625 125.875 C71.33624171 123.15713233 69.75729463 120.23262894 68.16015625 117.171875 C66.92151023 114.76453324 66.92151023 114.76453324 64.8125 111.75 C63 109 63 109 62 106.375 C61.14602713 103.91131829 61.14602713 103.91131829 59.1875 102.25 C55.98641937 98.95745992 52 93.75914498 52 89 C51.34 89 50.68 89 50 89 C49.731875 88.51273437 49.46375 88.02546875 49.1875 87.5234375 C46.58833404 82.82099908 43.93655184 78.15310778 41.25 73.5 C37.71835251 67.37135332 34.39109977 61.14589611 31.14550781 54.86132812 C28.98934831 50.72260658 26.6372422 46.85937883 24 43 C21.63529662 39.17635367 19.46043372 35.26163601 17.3125 31.3125 C16.68988281 30.17425781 16.06726563 29.03601563 15.42578125 27.86328125 C14 25 14 25 14 23 C13.34 23 12.68 23 12 23 C9.84694043 19.14243493 8.60746746 16.44870215 9 12 C8.34 12.66 7.68 13.32 7 14 C3 7.375 3 7.375 3 4 C1.68 3.34 0.36 2.68 -1 2 C-0.67 1.34 -0.34 0.68 0 0 Z " fill="#EFF0F4" transform="translate(221,131)"/>
<path d="M0 0 C-1.31080794 3.5300308 -2.86537506 6.57717134 -4.90625 9.73828125 C-5.76754517 11.08043701 -5.76754517 11.08043701 -6.64624023 12.44970703 C-7.25798096 13.39442871 -7.86972168 14.33915039 -8.5 15.3125 C-9.77259154 17.29528024 -11.04472402 19.27835519 -12.31640625 21.26171875 C-12.94305176 22.2367334 -13.56969727 23.21174805 -14.21533203 24.21630859 C-20.70858392 34.3443603 -27.02624003 44.55581039 -33 55 C-34.0625 53.125 -34.0625 53.125 -35 51 C-34.67 50.34 -34.34 49.68 -34 49 C-33.34 49 -32.68 49 -32 49 C-31.87625 47.4840625 -31.87625 47.4840625 -31.75 45.9375 C-31.15430434 41.60994626 -29.24238371 38.71394802 -27 35 C-26.23959428 32.73014106 -26.23959428 32.73014106 -26 31 C-25.34 31 -24.68 31 -24 31 C-24 30.34 -24 29.68 -24 29 C-23.34 29 -22.68 29 -22 29 C-21.85304688 28.45472656 -21.70609375 27.90945313 -21.5546875 27.34765625 C-19.93667573 21.90778909 -17.70321549 17.65411019 -14.40234375 13.04296875 C-13.06176114 11.08997514 -12.00563137 9.14117684 -11 7 C-10.34 7 -9.68 7 -9 7 C-8.67 5.35 -8.34 3.7 -8 2 C-2.25 0 -2.25 0 0 0 Z " fill="#D1D2D2" transform="translate(372,265)"/>
<path d="M0 0 C-1.0828125 1.0209375 -1.0828125 1.0209375 -2.1875 2.0625 C-8.24224634 8.15135759 -14.2362212 16.50702164 -16 25 C-16.66 25 -17.32 25 -18 25 C-18 25.66 -18 26.32 -18 27 C-18.66 27 -19.32 27 -20 27 C-20.33 28.32 -20.66 29.64 -21 31 C-21.66 31 -22.32 31 -23 31 C-23.495 33.475 -23.495 33.475 -24 36 C-27.465 36.495 -27.465 36.495 -31 37 C-29.57312764 33.14453984 -27.7748954 29.74350225 -25.6640625 26.21875 C-25.01179688 25.12949219 -24.35953125 24.04023438 -23.6875 22.91796875 C-22.6665625 21.22607422 -22.6665625 21.22607422 -21.625 19.5 C-20.95210938 18.37207031 -20.27921875 17.24414062 -19.5859375 16.08203125 C-18.93109375 14.99277344 -18.27625 13.90351563 -17.6015625 12.78125 C-17.00682129 11.79189453 -16.41208008 10.80253906 -15.79931641 9.78320312 C-7.87458079 -2.47486825 -7.87458079 -2.47486825 0 0 Z " fill="#E1E7F1" transform="translate(383,129)"/>
<path d="M0 0 C1 3 1 3 0.125 5.5 C-2.95310678 9.1213021 -6.50043004 9.8458642 -11 11 C-11.62910278 11.17392776 -12.25820557 11.34785553 -12.90637207 11.52705383 C-16.32540606 12.29940646 -19.79245669 12.16294567 -23.28125 12.16796875 C-24.49524475 12.17296135 -24.49524475 12.17296135 -25.73376465 12.17805481 C-27.44848057 12.18311324 -29.16320631 12.18546347 -30.87792969 12.18530273 C-33.46306324 12.18746905 -36.04775554 12.2055798 -38.6328125 12.22460938 C-62.72462211 12.31098392 -62.72462211 12.31098392 -69 7 C-66.85424137 6.97252941 -64.70837559 6.95339537 -62.5625 6.9375 C-61.36753906 6.92589844 -60.17257812 6.91429687 -58.94140625 6.90234375 C-54.57360903 7.01056469 -50.33262108 7.4749825 -46 8 C-44.32194709 8.18148659 -42.64355015 8.35981717 -40.96484375 8.53515625 C-39.72250977 8.66567383 -39.72250977 8.66567383 -38.45507812 8.79882812 C-37.20887695 8.9293457 -37.20887695 8.9293457 -35.9375 9.0625 C-35.07189453 9.15337891 -34.20628906 9.24425781 -33.31445312 9.33789062 C-31.2096608 9.55883568 -29.10483405 9.77945279 -27 10 C-27 9.34 -27 8.68 -27 8 C-21.72 8 -16.44 8 -11 8 C-11 7.34 -11 6.68 -11 6 C-8.36 6 -5.72 6 -3 6 C-3 5.01 -3 4.02 -3 3 C-1.5 1.3125 -1.5 1.3125 0 0 Z " fill="#989A9D" transform="translate(335,452)"/>
<path d="M0 0 C1.98 0.495 1.98 0.495 4 1 C3.67 29.05 3.34 57.1 3 86 C2.67 86 2.34 86 2 86 C1.58060884 77.44526911 1.17150076 68.89012906 0.77473354 60.33432198 C0.59009856 56.35951165 0.40221217 52.38491619 0.20629883 48.41064453 C-1.45557956 14.60858184 -1.45557956 14.60858184 0 0 Z " fill="#E4E5E7" transform="translate(329,322)"/>
<path d="M0 0 C22.77 0 45.54 0 69 0 C68.67 0.99 68.34 1.98 68 3 C60.75812997 3.04663476 53.51629307 3.08202566 46.27430248 3.10362434 C42.91043425 3.1139981 39.54666984 3.12803785 36.18286133 3.15087891 C32.30286995 3.17531301 28.4230234 3.18652564 24.54296875 3.1953125 C22.75792183 3.21079636 22.75792183 3.21079636 20.93681335 3.22659302 C13.73862141 3.22754656 7.02871684 2.56818517 0 1 C0 0.67 0 0.34 0 0 Z " fill="#E6E6E7" transform="translate(381,127)"/>
<path d="M0 0 C1.65 0 3.3 0 5 0 C3.72015012 3.41958126 2.2427058 6.42442382 0.28515625 9.50390625 C-0.49698242 10.73850586 -0.49698242 10.73850586 -1.29492188 11.99804688 C-1.83697266 12.84431641 -2.37902344 13.69058594 -2.9375 14.5625 C-3.47568359 15.41263672 -4.01386719 16.26277344 -4.56835938 17.13867188 C-6.93510965 20.85951848 -9.31786058 24.49662565 -12 28 C-12.33 26.35 -12.66 24.7 -13 23 C-12.01 22.67 -11.02 22.34 -10 22 C-9.9175 20.989375 -9.835 19.97875 -9.75 18.9375 C-9.15430434 14.60994626 -7.24238371 11.71394802 -5 8 C-4.23959428 5.73014106 -4.23959428 5.73014106 -4 4 C-3.34 4 -2.68 4 -2 4 C-2 3.34 -2 2.68 -2 2 C-1.34 2 -0.68 2 0 2 C0 1.34 0 0.68 0 0 Z " fill="#D7D9D9" transform="translate(350,292)"/>
<path d="M0 0 C0.33 0 0.66 0 1 0 C1.25 2.1875 1.25 2.1875 1 5 C0.071875 6.051875 0.071875 6.051875 -0.875 7.125 C-4.00021101 11.35322666 -4.31732819 15.87097889 -5 21 C-5.66 21 -6.32 21 -7 21 C-7.33 22.65 -7.66 24.3 -8 26 C-10.31 26.33 -12.62 26.66 -15 27 C-12.8154129 21.16721154 -9.61065726 16.02619192 -6.4375 10.6875 C-5.83486328 9.66076172 -5.23222656 8.63402344 -4.61132812 7.57617188 C-4.03705078 6.60615234 -3.46277344 5.63613281 -2.87109375 4.63671875 C-2.34443115 3.74686279 -1.81776855 2.85700684 -1.27514648 1.94018555 C-0.85434814 1.29992432 -0.4335498 0.65966309 0 0 Z " fill="#D4E0E9" transform="translate(367,139)"/>
<path d="M0 0 C0.71484375 1.578125 0.71484375 1.578125 1 4 C-0.05709499 6.38494456 -1.1317889 8.51234067 -2.4375 10.75 C-2.77587891 11.35199219 -3.11425781 11.95398438 -3.46289062 12.57421875 C-4.29768265 14.05568065 -5.14741494 15.52870608 -6 17 C-7.65 16.67 -9.3 16.34 -11 16 C-10.05066101 12.64566891 -9.10251165 9.30753495 -8 6 C-7.01 5.67 -6.02 5.34 -5 5 C-3.29413425 3.37347684 -1.6222454 1.70993434 0 0 Z " fill="#DDE5ED" transform="translate(347,183)"/>
<path d="M0 0 C-1.43308135 3.95906817 -3.33141949 7.28718181 -5.625 10.8125 C-6.57246094 12.27623047 -6.57246094 12.27623047 -7.5390625 13.76953125 C-8.02117187 14.50558594 -8.50328125 15.24164063 -9 16 C-11.03125 12.3046875 -11.03125 12.3046875 -10.75 9.5625 C-10.5025 8.716875 -10.255 7.87125 -10 7 C-9.773125 6.113125 -9.54625 5.22625 -9.3125 4.3125 C-8 2 -8 2 -5 0.6875 C-2 0 -2 0 0 0 Z " fill="#CCCECD" transform="translate(372,265)"/>
<path d="M0 0 C0.99 0.495 0.99 0.495 2 1 C2.22594826 5.24925612 2.42771126 9.49932444 2.625 13.75 C2.68945312 14.9565625 2.75390625 16.163125 2.8203125 17.40625 C2.871875 18.56640625 2.9234375 19.7265625 2.9765625 20.921875 C3.02893066 21.99018555 3.08129883 23.05849609 3.13525391 24.15917969 C2.99859876 27.02943104 2.49455551 28.58218665 1 31 C0.67 31 0.34 31 0 31 C0 20.77 0 10.54 0 0 Z " fill="#0C0D0A" transform="translate(337,386)"/>
<path d="M0 0 C0.99 0.33 1.98 0.66 3 1 C3 1.66 3 2.32 3 3 C3.99 3 4.98 3 6 3 C7.4606285 5.64738916 8 6.89448334 8 10 C8.66 10 9.32 10 10 10 C10.33 11.98 10.66 13.96 11 16 C6.9519848 13.90358327 4.95651129 11.9399886 2.6875 8 C2.17574219 7.13375 1.66398438 6.2675 1.13671875 5.375 C0 3 0 3 0 0 Z " fill="#CFE8EE" transform="translate(215,244)"/>
<path d="M0 0 C-0.33 2.31 -0.66 4.62 -1 7 C-1.66 7 -2.32 7 -3 7 C-3.268125 7.969375 -3.53625 8.93875 -3.8125 9.9375 C-4.204375 10.948125 -4.59625 11.95875 -5 13 C-5.99 13.33 -6.98 13.66 -8 14 C-7.88490339 12.58249437 -7.75746342 11.16598831 -7.625 9.75 C-7.55539062 8.96109375 -7.48578125 8.1721875 -7.4140625 7.359375 C-6.9787895 4.87914019 -6.31630309 3.14017625 -5 1 C-3 0 -3 0 0 0 Z " fill="#E1E5EE" transform="translate(358,164)"/>
<path d="M0 0 C0.33 0 0.66 0 1 0 C1.16829777 3.06241827 1.33469662 6.12491987 1.5 9.1875 C1.54769531 10.05181641 1.59539062 10.91613281 1.64453125 11.80664062 C1.68964844 12.64775391 1.73476563 13.48886719 1.78125 14.35546875 C1.84892578 15.57242432 1.84892578 15.57242432 1.91796875 16.81396484 C2 19 2 19 1.84375 21.98828125 C1.8953125 22.65214844 1.946875 23.31601562 2 24 C4.91765 25.9451 6.62537285 26.45276317 10 27 C10 27.33 10 27.66 10 28 C8.39479996 27.93976735 6.79065673 27.85091401 5.1875 27.75 C3.84751953 27.68039062 3.84751953 27.68039062 2.48046875 27.609375 C0 27 0 27 -1.82421875 24.953125 C-2.21222656 24.30859375 -2.60023438 23.6640625 -3 23 C-2 21 -2 21 -1 20 C-0.84344973 18.51361008 -0.74933057 17.02050873 -0.68359375 15.52734375 C-0.64169922 14.62822266 -0.59980469 13.72910156 -0.55664062 12.80273438 C-0.51732422 11.85720703 -0.47800781 10.91167969 -0.4375 9.9375 C-0.39431641 8.98810547 -0.35113281 8.03871094 -0.30664062 7.06054688 C-0.20020724 4.70718647 -0.09818992 2.35371646 0 0 Z " fill="#C1CEDD" transform="translate(266,432)"/>
<path d="M0 0 C0.33 0 0.66 0 1 0 C1.95468258 6.37457348 2.1202324 12.56061653 2.0625 19 C2.05798828 19.96550781 2.05347656 20.93101562 2.04882812 21.92578125 C2.03715417 24.28392089 2.02078021 26.64192602 2 29 C1.67 29 1.34 29 1 29 C0.67 27.02 0.34 25.04 0 23 C-0.33 23 -0.66 23 -1 23 C-1.1567564 15.28410183 -0.67453101 7.68483539 0 0 Z " fill="#D3D4D3" transform="translate(331,424)"/>
<path d="M0 0 C1.19597264 2.39194529 2.38536756 4.78614981 3.5625 7.1875 C4.7350297 9.83763646 4.7350297 9.83763646 6 11 C6.04063832 12.66617115 6.042721 14.33388095 6 16 C5.67 15.34 5.34 14.68 5 14 C4.401875 13.7525 3.80375 13.505 3.1875 13.25 C0.07200199 11.46971543 -1.21632153 9.05773452 -3 6 C-3 5.34 -3 4.68 -3 4 C-2.34 3.67 -1.68 3.34 -1 3 C-0.67 2.01 -0.34 1.02 0 0 Z " fill="#C8DFE9" transform="translate(251,294)"/>
<path d="M0 0 C1.65 0 3.3 0 5 0 C3.35821735 4.77609498 0.73453298 8.79382904 -2 13 C-3.1700097 9.08263419 -2.69584017 6.02040985 -2 2 C-1.34 2 -0.68 2 0 2 C0 1.34 0 0.68 0 0 Z " fill="#C2C4C3" transform="translate(350,292)"/>
<path d="M0 0 C0.763125 0.20625 1.52625 0.4125 2.3125 0.625 C-2.3125 5.5 -2.3125 5.5 -5.6875 6.625 C-5.6875 5.965 -5.6875 5.305 -5.6875 4.625 C-6.863125 5.8315625 -6.863125 5.8315625 -8.0625 7.0625 C-10.6875 9.625 -10.6875 9.625 -12.6875 10.625 C-10.65855481 5.64486181 -5.7793378 -0.80641923 0 0 Z " fill="#CFD2D5" transform="translate(380.6875,128.375)"/>
<path d="M0 0 C0.33 0 0.66 0 1 0 C1.62440191 8.11722488 1.62440191 8.11722488 -0.8125 11.5625 C-3 13 -3 13 -6 13 C-5.52467862 7.92990529 -2.95637706 4.02506742 0 0 Z " fill="#CCE1E6" transform="translate(311,235)"/>
<path d="M0 0 C2.74277578 3.19990508 4.6302836 6.00499382 6 10 C4.35 10.33 2.7 10.66 1 11 C-1.62386487 7.93882432 -2 7.26826873 -2 3 C-1.34 3 -0.68 3 0 3 C0 2.01 0 1.02 0 0 Z " fill="#CCCED0" transform="translate(285,226)"/>
<path d="M0 0 C2.69195459 4.03793188 3.91495658 8.29814518 5 13 C4.34 13 3.68 13 3 13 C2.67 13.66 2.34 14.32 2 15 C1.51801537 13.75108386 1.03954323 12.50081192 0.5625 11.25 C0.29566406 10.55390625 0.02882813 9.8578125 -0.24609375 9.140625 C-1.71624322 4.96631459 -1.71624322 4.96631459 -2 3 C-1.34 2.01 -0.68 1.02 0 0 Z " fill="#C9E3E9" transform="translate(259,308)"/>
<path d="M0 0 C4.875 2.75 4.875 2.75 6 5 C6.039992 6.99960012 6.04346799 9.00047242 6 11 C2.67631776 9.89210592 2.38436907 9.51563783 0.75 6.625 C0.39421875 6.01914063 0.0384375 5.41328125 -0.328125 4.7890625 C-1 3 -1 3 0 0 Z " fill="#D2F1F1" transform="translate(194,209)"/>
<path d="M0 0 C0.66 0 1.32 0 2 0 C2 1.65 2 3.3 2 5 C0.68 5.33 -0.64 5.66 -2 6 C-1.67 6.99 -1.34 7.98 -1 9 C-1.66 9 -2.32 9 -3 9 C-3.33 10.65 -3.66 12.3 -4 14 C-4.99 14 -5.98 14 -7 14 C-5.23570801 9.02790438 -2.6060834 4.56561939 0 0 Z " fill="#CADADE" transform="translate(341,183)"/>
<path d="M0 0 C0.66 0.33 1.32 0.66 2 1 C-0.3107221 9.35010941 -0.3107221 9.35010941 -3.1875 12.0625 C-3.785625 12.371875 -4.38375 12.68125 -5 13 C-5.25 9.6875 -5.25 9.6875 -5 6 C-3.0625 4.25 -3.0625 4.25 -1 3 C-0.67 2.01 -0.34 1.02 0 0 Z " fill="#DBEBF4" transform="translate(317,227)"/>
<path d="M0 0 C0.33 0 0.66 0 1 0 C1.39918183 3.49284103 1.22907865 4.69702501 -0.9375 7.5625 C-1.618125 8.366875 -2.29875 9.17125 -3 10 C-3.77833534 12.18214568 -3.77833534 12.18214568 -4 14 C-5.32 14.33 -6.64 14.66 -8 15 C-6.62859834 11.32305352 -4.96304199 8.04681411 -2.9375 4.6875 C-2.41027344 3.80449219 -1.88304687 2.92148438 -1.33984375 2.01171875 C-0.89769531 1.34785156 -0.45554687 0.68398437 0 0 Z " fill="#C9D6DE" transform="translate(367,139)"/>
<path d="M0 0 C2.49361571 1.20381448 4.68143083 2.45428722 7 4 C7.70052461 6.663063 7.77744818 9.24035737 8 12 C4.78119883 8.2064129 2.3836813 4.34170523 0 0 Z " fill="#BEDBDF" transform="translate(240,286)"/>
<path d="M0 0 C6.01326751 0.57914667 12.00892722 1.22337945 18 2 C18 2.33 18 2.66 18 3 C11.73 3 5.46 3 -1 3 C-0.67 2.01 -0.34 1.02 0 0 Z " fill="#B8B9BE" transform="translate(279,459)"/>
<path d="M0 0 C3.96 0.33 7.92 0.66 12 1 C12 1.99 12 2.98 12 4 C4.5 3.375 4.5 3.375 0 0 Z " fill="#9B9EA2" transform="translate(266,459)"/>
<path d="M0 0 C1 3 1 3 0.125 5.125 C-3.14493383 8.01023573 -6.76416472 7.82239684 -11 8 C-11 7.34 -11 6.68 -11 6 C-8.36 6 -5.72 6 -3 6 C-3 5.01 -3 4.02 -3 3 C-1.5 1.3125 -1.5 1.3125 0 0 Z " fill="#B6B7B6" transform="translate(335,452)"/>
<path d="M0 0 C1 3 1 3 0.00390625 5.26171875 C-0.47175781 6.06222656 -0.94742187 6.86273438 -1.4375 7.6875 C-2.14712891 8.89986328 -2.14712891 8.89986328 -2.87109375 10.13671875 C-3.24363281 10.75160156 -3.61617188 11.36648438 -4 12 C-5.0625 10.125 -5.0625 10.125 -6 8 C-5.67 7.34 -5.34 6.68 -5 6 C-4.34 6 -3.68 6 -3 6 C-2.690625 5.195625 -2.38125 4.39125 -2.0625 3.5625 C-1 1 -1 1 0 0 Z " fill="#BCBEBE" transform="translate(343,308)"/>
<path d="M0 0 C4.0042343 3.49087093 5.62671065 5.64951939 6 11 C5.01 10.67 4.02 10.34 3 10 C1.25327015 6.5065403 0 3.93154432 0 0 Z " fill="#151A1E" transform="translate(228,269)"/>
<path d="M0 0 C1.32 1.65 2.64 3.3 4 5 C3.34 6.32 2.68 7.64 2 9 C0 7.25 0 7.25 -2 5 C-2 3.68 -2 2.36 -2 1 C-1.34 0.67 -0.68 0.34 0 0 Z " fill="#CDCFD1" transform="translate(266,194)"/>
<path d="M0 0 C0.99 0.33 1.98 0.66 3 1 C3.33 2.98 3.66 4.96 4 7 C2.68 6.67 1.36 6.34 0 6 C-0.38218767 4.34385343 -0.71395102 2.67542976 -1 1 C-0.67 0.67 -0.34 0.34 0 0 Z " fill="#D2EFF4" transform="translate(230,265)"/>
<path d="M0 0 C0.99 0 1.98 0 3 0 C1.79157144 4.43090471 0.48331435 6.98112756 -3 10 C-2.69201674 8.51988629 -2.378482 7.04092675 -2.0625 5.5625 C-1.88847656 4.73878906 -1.71445312 3.91507813 -1.53515625 3.06640625 C-1 1 -1 1 0 0 Z " fill="#0E1217" transform="translate(314,224)"/>
<path d="M0 0 C0.93423645 3.01031744 1.04449911 3.86650268 0 7 C0 7.99 0 8.98 0 10 C-1.32 10 -2.64 10 -4 10 C-2.99806563 6.20696275 -2.18975773 3.28463659 0 0 Z " fill="#D9DADB" transform="translate(355,282)"/>
<path d="M0 0 C0.99 0.33 1.98 0.66 3 1 C2.34 2.98 1.68 4.96 1 7 C1.99 7.33 2.98 7.66 4 8 C3.01 8.33 2.02 8.66 1 9 C-0.61949011 6.42786866 -1.04408751 5.32330841 -0.625 2.25 C-0.41875 1.5075 -0.2125 0.765 0 0 Z " fill="#DDDFE0" transform="translate(263,192)"/>
<path d="M0 0 C0.66 0 1.32 0 2 0 C2 0.66 2 1.32 2 2 C1.34 2 0.68 2 0 2 C0 1.34 0 0.68 0 0 Z M-2 2 C-1.34 2.33 -0.68 2.66 0 3 C0 4.65 0 6.3 0 8 C-1.65 8.33 -3.3 8.66 -5 9 C-5.33 8.34 -5.66 7.68 -6 7 C-5.525625 6.54625 -5.05125 6.0925 -4.5625 5.625 C-2.90972192 4.06741796 -2.90972192 4.06741796 -2 2 Z " fill="#D9DBDB" transform="translate(338,312)"/>
<path d="M0 0 C0.99 0 1.98 0 3 0 C3.33 1.98 3.66 3.96 4 6 C3.01 6 2.02 6 1 6 C0.67 4.02 0.34 2.04 0 0 Z " fill="#DBF0F5" transform="translate(153,145)"/>
<path d="M0 0 C1.32 1.32 2.64 2.64 4 4 C3.01 4.99 2.02 5.98 1 7 C1 6.01 1 5.02 1 4 C0.01 3.67 -0.98 3.34 -2 3 C-2 2.34 -2 1.68 -2 1 C-1.34 0.67 -0.68 0.34 0 0 Z " fill="#E0DFE1" transform="translate(227,132)"/>
<path d="M0 0 C-2.16687491 2.27521866 -4.45620509 4.15794162 -7 6 C-6.75 3.625 -6.75 3.625 -6 1 C-2.69333333 -1.34666667 -2.69333333 -1.34666667 0 0 Z " fill="#CDCFD1" transform="translate(347,306)"/>
<path d="M0 0 C2.475 0.495 2.475 0.495 5 1 C5.33 2.65 5.66 4.3 6 6 C5.01 6.495 5.01 6.495 4 7 C2.02 3.535 2.02 3.535 0 0 Z " fill="#C1DEE4" transform="translate(233,275)"/>
<path d="M0 0 C0.66 0 1.32 0 2 0 C3.0625 1.8125 3.0625 1.8125 4 4 C3.67 4.99 3.34 5.98 3 7 C1.68 6.34 0.36 5.68 -1 5 C-0.67 3.35 -0.34 1.7 0 0 Z " fill="#131B1A" transform="translate(221,258)"/>
<path d="M0 0 C0 1.65 0 3.3 0 5 C-1.32 5 -2.64 5 -4 5 C-4 3.68 -4 2.36 -4 1 C-1 0 -1 0 0 0 Z " fill="#131416" transform="translate(303,244)"/>
<path d="M0 0 C0.66 1.32 1.32 2.64 2 4 C1.01 4 0.02 4 -1 4 C-1.103125 4.61875 -1.20625 5.2375 -1.3125 5.875 C-2 8 -2 8 -5 10 C-3.66511872 6.40608886 -2.03977277 3.24509304 0 0 Z " fill="#C3D3D9" transform="translate(318,223)"/>
<path d="M0 0 C0.99 0.33 1.98 0.66 3 1 C4.1875 4.0625 4.1875 4.0625 5 7 C4.34 6.67 3.68 6.34 3 6 C3 5.34 3 4.68 3 4 C1.68 3.67 0.36 3.34 -1 3 C-0.67 2.01 -0.34 1.02 0 0 Z " fill="#131A1C" transform="translate(237,284)"/>
<path d="M0 0 C1.0625 1.875 1.0625 1.875 2 4 C1.67 4.66 1.34 5.32 1 6 C0.34 5.67 -0.32 5.34 -1 5 C-1 5.66 -1 6.32 -1 7 C-1.99 7.33 -2.98 7.66 -4 8 C-2.87548273 5.0280615 -1.77706209 2.66559313 0 0 Z " fill="#2C2A2B" transform="translate(362,281)"/>
<path d="M0 0 C0.66 0 1.32 0 2 0 C3.2077558 3.62326739 2.54311128 4.64146369 1 8 C-1 6 -1 6 -1.1875 3.4375 C-1 1 -1 1 0 0 Z " fill="#D7D9DC" transform="translate(254,176)"/>
<path d="M0 0 C0.625 1.875 0.625 1.875 1 4 C0.34 4.66 -0.32 5.32 -1 6 C-1.99 5.34 -2.98 4.68 -4 4 C-3 2 -3 2 0 0 Z " fill="#C0D3E6" transform="translate(267,451)"/>
<path d="M0 0 C2 3 2 3 1.625 5.1875 C1.41875 5.785625 1.2125 6.38375 1 7 C0.01 6.67 -0.98 6.34 -2 6 C-1.49396008 3.83125748 -1.00016187 2.00032373 0 0 Z " fill="#CFE8F0" transform="translate(259,308)"/>
<path d="M0 0 C1.485 0.99 1.485 0.99 3 2 C3.1875 4.625 3.1875 4.625 3 7 C2.67 6.34 2.34 5.68 2 5 C1.01 4.67 0.02 4.34 -1 4 C-0.67 2.68 -0.34 1.36 0 0 Z " fill="#CEEDF5" transform="translate(254,303)"/>
<path d="M0 0 C0.99 0.33 1.98 0.66 3 1 C3.33 2.98 3.66 4.96 4 7 C2.68 6.34 1.36 5.68 0 5 C0 3.35 0 1.7 0 0 Z " fill="#D7F4F9" transform="translate(222,253)"/>
<path d="M0 0 C0.99 0 1.98 0 3 0 C3 0.66 3 1.32 3 2 C3.66 2 4.32 2 5 2 C4.67 2.99 4.34 3.98 4 5 C2.68 4.67 1.36 4.34 0 4 C0 2.68 0 1.36 0 0 Z " fill="#D8F4FB" transform="translate(212,238)"/>
<path d="M0 0 C0.99 0 1.98 0 3 0 C2.34 1.98 1.68 3.96 1 6 C0.34 6 -0.32 6 -1 6 C-1.042721 4.33388095 -1.04063832 2.66617115 -1 1 C-0.67 0.67 -0.34 0.34 0 0 Z " fill="#0F1618" transform="translate(321,212)"/>
<path d="M0 0 C1 2 1 2 0.25 4.5625 C-1 7 -1 7 -4 8 C-4.33 7.01 -4.66 6.02 -5 5 C-4.01 4.34 -3.02 3.68 -2 3 C-1.34 2.01 -0.68 1.02 0 0 Z " fill="#D9EDF1" transform="translate(327,211)"/>
<path d="M0 0 C1 3 1 3 -0.25 5.5625 C-2 8 -2 8 -5 10 C-3.66511872 6.40608886 -2.03977277 3.24509304 0 0 Z " fill="#292928" transform="translate(420,189)"/>
<path d="M0 0 C0.33 0.66 0.66 1.32 1 2 C0.06553465 4.03144641 -0.93224776 6.03533587 -2 8 C-2.66 7.01 -3.32 6.02 -4 5 C-2.25 1.125 -2.25 1.125 0 0 Z " fill="#E3EEF9" transform="translate(355,164)"/>
</svg>
